<svg id="logo" xmlns="http://www.w3.org/2000/svg" viewBox="0 0 88.3 61.9">
  <defs>
    <style>
      .cls-1 {
        fill: #802932;
      }
    </style>
  </defs>
  <path class="cls-1" d="M44.2,60.6l-29-2.5h-.5c0,0,0-14.5,0-14.5l-10.6-.5L44.2,2.9l40.1,40.1-10.6.5v14.6h-.5c0,0-28.9,2.4-28.9,2.4ZM19.1,57.5l25.1,2.2,25.1-2.2-25.1-4.3-25.1,4.3ZM44.7,52.2l28,4.8v-16.8l-28-7.9v19.9ZM15.7,42.7v14.4l28-4.8v-19.9l-28,7.9v2.5ZM73.7,40.5v2.1l6.4-.3-6.4-1.8ZM8.3,42.3l6.4.3v-2.1l-6.4,1.8ZM44.7,31.3l36.8,10.4L44.7,4.9v26.4ZM43.7,4.9L6.9,41.6l36.8-10.4V4.9Z"/>
</svg>