<svg xmlns="http://www.w3.org/2000/svg" viewBox="0 0 88.3 83.8">
  <defs>
    <style>
      .cls-1 {
        fill: #802932;
      }

      .cls-2 {
        fill: #9f9e9e;
        stroke: #9f9e9e;
        stroke-miterlimit: 10;
      }
    </style>
  </defs>
  <path class="cls-1" d="M44.2,61.1h0s-29-2.5-29-2.5l-1,.2v-14.7l-11.3-.6L44.2,2.2l41.3,41.3-11.3.6v14.7l-1-.2-28.9,2.5ZM23,57.3l21.3,1.8,21.1-1.8-21.2-3.7-21.2,3.7ZM73.2,57.6l-1.8.2,1.8-.2h0ZM15.2,57.6h0l29-5,13,2.2-13-2.2v-21l29,8.2h0s-29-8.2-29-8.2V3.6v28l-29,8.2v3.3l-10-.5,10,.5v-3.3l29-8.2v21l-29,5ZM73.2,57.6v-14.5l10-.5h0s-7.5-2.1-7.5-2.1l7.5,2.1-10,.5v14.5ZM45.2,51.8l27,4.7v-15.9l-27-7.6v18.8ZM16.2,40.6v15.9l27-4.7v-18.8l-27,7.6ZM5.2,42.6h0l6.4-1.8-6.4,1.8ZM11.3,42h2.9c0,.1,0-.8,0-.8l-2.9.8ZM74.2,41.1v1h2.9c0-.1-2.9-1-2.9-1ZM45.2,30.9l34.6,9.8L45.2,6.1v24.8ZM43.2,6.1L8.6,40.6l34.6-9.8V6.1Z"/>
  <path class="cls-2" d="M15.2,83.3v-14.8h5.6c2.3,0,4.2.7,5.5,2.1,1.3,1.4,2,3.2,2,5.2s-.6,3.9-1.9,5.3c-1.3,1.4-2.9,2.2-4.8,2.2h-6.3ZM17.2,81.5h3.4c1.8,0,3.1-.3,4.1-1.4s1.4-2.5,1.4-4.3-.4-2.8-1.3-3.9c-.9-1.2-2.3-1.5-4.1-1.5h-3.4v11.1ZM42.3,83.3h-2l-2-4.7h-6l-1.9,4.7h-2l6.1-14.8h1.7l6.1,14.8ZM37.8,77l-2.5-5.8-2.3,5.8h4.8ZM56.4,83.3h-1.9v-6.5h-8.2v6.5h-2v-14.8h2v6.6h8.2v-6.6h1.9v14.8ZM73.3,83.3h-1.7v-12l-4.6,6h-1l-4.4-6v12h-1.7v-14.8h1.6l5.1,6.3,5.2-6.3h1.5v14.8Z"/>
</svg>