<?xml version="1.0" encoding="UTF-8"?>
<svg id="Layer_1" xmlns="http://www.w3.org/2000/svg" viewBox="0 0 123.5 121.7">
  <defs>
    <style>
      .cls-1 {
        fill: #a09e9e;
      }

      .cls-2 {
        fill: #6a1e28;
      }
    </style>
  </defs>
  <path class="cls-2" d="M61.7,88h0l-43.3-3.7-1.5.3v-22l-16.9-.9L61.7,0l61.7,61.7-16.9.9v22l-1.5-.3-43.2,3.7h-.1ZM30,82.4l31.8,2.7,31.5-2.7-31.7-5.5-31.7,5.5ZM105.1,82.8l-2.7.3,2.7-.3h0ZM18.4,82.8h0l43.3-7.5,19.4,3.3-19.4-3.3v-31.4l43.3,12.3h0l-43.3-12.3V2.1v41.9l-43.3,12.3v4.9l-14.9-.7,14.9.7v-4.9l43.3-12.3v31.4s-43.3,7.5-43.3,7.5ZM105.1,82.8v-21.7l14.9-.7h0l-11.2-3.1,11.2,3.1-14.9.7v21.7ZM63.2,74.1l40.4,7v-23.8l-40.4-11.4s0,28.1,0,28.1ZM19.9,57.4v23.8l40.4-7v-28.1l-40.4,11.4ZM3.4,60.4h0l9.6-2.7s-9.6,2.7-9.6,2.7ZM12.6,59.5h4.3c0,.1,0-1.2,0-1.2,0,0-4.3,1.2-4.3,1.2ZM106.6,58.1v1.5h4.3c0-.1-4.3-1.5-4.3-1.5ZM63.2,42.9l51.7,14.6L63.2,5.8v37.1ZM60.2,5.8L8.5,57.4l51.7-14.6s0-36.9,0-36.9Z"/>
  <path class="cls-1" d="M18.3,121.2v-22.1h8.4c3.4,0,6.3,1,8.2,3.1s3,4.8,3,7.8-.9,5.8-2.8,7.9-4.3,3.3-7.2,3.3h-9.6ZM21.3,118.5h5.1c2.7,0,4.6-.4,6.1-2.1s2.1-3.7,2.1-6.4-.6-4.2-1.9-5.8c-1.3-1.8-3.4-2.2-6.1-2.2h-5.1v16.6h-.1ZM58.8,121.2h-3l-3-7h-9l-2.8,7h-3l9.1-22.1h2.5l9.1,22.1ZM52.1,111.8l-3.7-8.7-3.4,8.7h7.2ZM79.9,121.2h-2.8v-9.7h-12.3v9.7h-3v-22.1h3v9.9h12.3v-9.9h2.8v22.1ZM105.2,121.2h-2.5v-17.9l-6.9,9h-1.5l-6.6-9v17.9h-2.5v-22.1h2.4l7.6,9.4,7.8-9.4h2.2v22.1ZM105.7,121.7h-3.5v-17l-6.1,8h-2l-5.8-7.9v16.9h-3.5v-23.1h3.1l7.4,9.1,7.5-9.1h3v23.1ZM103.1,120.7h1.5v-21.1h-1.5l-8,9.7-7.9-9.7h-1.7v21.1h1.5v-19l7.3,10h1l7.6-9.9v18.9ZM80.4,121.7h-3.8v-9.7h-11.3v9.7h-4v-23.1h4v9.9h11.3v-9.9h3.8v23.1ZM77.6,120.7h1.8v-21.1h-1.8v9.9h-13.3v-9.9h-2v21.1h2v-9.7h13.3v9.7ZM59.6,121.7h-4.1l-3-7h-8.3l-2.8,7h-4.1l9.5-23.1h3.2l9.5,23.1ZM56.2,120.7h1.9l-8.7-21.1h-1.9l-8.7,21.1h1.9l2.8-7h9.6l3,7ZM27.9,121.7h-10.1v-23.1h8.9c3.6,0,6.6,1.1,8.6,3.3,2,2.2,3.1,5,3.1,8.1s-1,6.2-3,8.3c-2.1,2.3-4.7,3.4-7.5,3.4ZM18.8,120.7h9.1c2.6,0,4.9-1.1,6.8-3.1,1.8-1.9,2.7-4.5,2.7-7.6s-1-5.4-2.9-7.4c-1.8-1.9-4.5-3-7.9-3h-7.9v21.1ZM26.4,119h-5.1v-.5h-.4v-17.1h5.6c2.3,0,4.9.3,6.5,2.4,1.5,1.8,2,3.5,2,6.1s-.7,5.1-2.2,6.8c-1.8,2-4.2,2.3-6.5,2.3ZM22,118h4.4c2.9,0,4.5-.5,5.8-1.9,1.3-1.5,2-3.4,2-6.1s-.5-3.9-1.8-5.5c-1.1-1.5-2.8-2.1-5.7-2.1h-4.6v15.6ZM52.9,112.3h-8.7l4.2-10.5,4.5,10.5ZM45.7,111.3h5.7l-3-6.9-2.7,6.9Z"/>
</svg>